<svg viewBox="0 0 28 28" fill="none" xmlns="http://www.w3.org/2000/svg">
  <g transform="translate(14 14) scale(1.18) translate(-14 -14)">
    <path
      fill-rule="evenodd"
      clip-rule="evenodd"
      d="M8.457 9.5H11.157C12.18 9.5 13.127 9.992 13.718 10.725H14.282C14.873 9.992 15.82 9.5 16.843 9.5H19.543C21.138 9.5 22.536 10.564 22.98 12.095L24.897 18.774C25.555 21.068 23.834 23.35 21.448 23.35C20.356 23.35 19.321 22.851 18.642 21.997L16.623 19.45H11.377L9.358 21.997C8.679 22.851 7.644 23.35 6.552 23.35C4.166 23.35 2.445 21.068 3.103 18.774L5.02 12.095C5.464 10.564 6.862 9.5 8.457 9.5ZM9.7 13.15C9.7 12.874 9.924 12.65 10.2 12.65H11.2C11.476 12.65 11.7 12.874 11.7 13.15V14.25H12.8C13.076 14.25 13.3 14.474 13.3 14.75V15.75C13.3 16.026 13.076 16.25 12.8 16.25H11.7V17.35C11.7 17.626 11.476 17.85 11.2 17.85H10.2C9.924 17.85 9.7 17.626 9.7 17.35V16.25H8.6C8.324 16.25 8.1 16.026 8.1 15.75V14.75C8.1 14.474 8.324 14.25 8.6 14.25H9.7V13.15ZM19.55 14.4C20.13 14.4 20.6 13.93 20.6 13.35C20.6 12.77 20.13 12.3 19.55 12.3C18.97 12.3 18.5 12.77 18.5 13.35C18.5 13.93 18.97 14.4 19.55 14.4ZM18.6 16.3C18.6 16.88 18.13 17.35 17.55 17.35C16.97 17.35 16.5 16.88 16.5 16.3C16.5 15.72 16.97 15.25 17.55 15.25C18.13 15.25 18.6 15.72 18.6 16.3Z"
      fill="currentColor" />
  </g>
</svg>
