<svg viewBox="0 0 28 28" fill="none" xmlns="http://www.w3.org/2000/svg">
  <path
    d="M8.457 10.25H11.157C12.037 10.25 12.85 10.717 13.288 11.475H14.712C15.15 10.717 15.963 10.25 16.843 10.25H19.543C20.804 10.25 21.908 11.091 22.259 12.303L24.176 18.981C24.696 20.795 23.335 22.6 21.448 22.6C20.584 22.6 19.767 22.206 19.229 21.531L16.986 18.7H11.014L8.771 21.531C8.233 22.206 7.416 22.6 6.552 22.6C4.665 22.6 3.304 20.795 3.824 18.981L5.741 12.303C6.092 11.091 7.196 10.25 8.457 10.25Z"
    stroke="currentColor" stroke-width="1.5" stroke-linejoin="round" />
  <path d="M10.75 13.55V17.05M9 15.3H12.5" stroke="currentColor" stroke-width="1.5" stroke-linecap="round" />
  <path
    d="M19.55 14.4C20.13 14.4 20.6 13.93 20.6 13.35C20.6 12.77 20.13 12.3 19.55 12.3C18.97 12.3 18.5 12.77 18.5 13.35C18.5 13.93 18.97 14.4 19.55 14.4Z"
    fill="currentColor" />
  <path
    d="M17.55 17.35C18.13 17.35 18.6 16.88 18.6 16.3C18.6 15.72 18.13 15.25 17.55 15.25C16.97 15.25 16.5 15.72 16.5 16.3C16.5 16.88 16.97 17.35 17.55 17.35Z"
    fill="currentColor" />
</svg>
